<svg width="383" height="273" viewBox="0 0 383 273" fill="none" xmlns="http://www.w3.org/2000/svg">
<path d="M130.204 124C121.204 111.087 124.37 90 128.704 81C110.304 104.6 117.204 126.667 123.204 134.5C136.204 154 168.704 148 186.204 141.5C211.01 132.286 240.704 103.833 256.204 88.5L262.204 93L266.204 68.5L239.704 72.5L245.704 78.5C239.704 85.3333 223.104 102.3 204.704 115.5C181.704 132 141.704 140.5 130.204 124Z" fill="#1A64AB"/>
<path d="M143.204 71L167.704 52L168.204 130H143.204V71Z" fill="#007A44"/>
<path d="M171.704 50.5L201.204 26L201.704 114L171.704 129V50.5Z" fill="#007A44"/>
<path d="M204.204 25L234.704 0V85.5L204.204 112V25Z" fill="#007A44"/>
<path d="M15.456 201.09C11.52 201.09 8.288 200.162 5.76 198.306C3.232 196.418 1.872 193.73 1.68 190.242H11.712C11.808 191.426 12.16 192.29 12.768 192.834C13.376 193.378 14.16 193.65 15.12 193.65C15.984 193.65 16.688 193.442 17.232 193.026C17.808 192.578 18.096 191.97 18.096 191.202C18.096 190.21 17.632 189.442 16.704 188.898C15.776 188.354 14.272 187.746 12.192 187.074C9.984 186.338 8.192 185.634 6.816 184.962C5.472 184.258 4.288 183.25 3.264 181.938C2.272 180.594 1.776 178.85 1.776 176.706C1.776 174.53 2.32 172.674 3.408 171.138C4.496 169.57 6 168.386 7.92 167.586C9.84 166.786 12.016 166.386 14.448 166.386C18.384 166.386 21.52 167.314 23.856 169.17C26.224 170.994 27.488 173.57 27.648 176.898H17.424C17.392 175.874 17.072 175.106 16.464 174.594C15.888 174.082 15.136 173.826 14.208 173.826C13.504 173.826 12.928 174.034 12.48 174.45C12.032 174.866 11.808 175.458 11.808 176.226C11.808 176.866 12.048 177.426 12.528 177.906C13.04 178.354 13.664 178.754 14.4 179.106C15.136 179.426 16.224 179.842 17.664 180.354C19.808 181.09 21.568 181.826 22.944 182.562C24.352 183.266 25.552 184.274 26.544 185.586C27.568 186.866 28.08 188.498 28.08 190.482C28.08 192.498 27.568 194.306 26.544 195.906C25.552 197.506 24.096 198.77 22.176 199.698C20.288 200.626 18.048 201.09 15.456 201.09ZM30.9176 187.266C30.9176 184.482 31.4136 182.05 32.4056 179.97C33.4296 177.89 34.8056 176.29 36.5336 175.17C38.2936 174.05 40.2456 173.49 42.3896 173.49C44.2456 173.49 45.8456 173.858 47.1896 174.594C48.5336 175.33 49.5736 176.322 50.3096 177.57V173.826H59.7176V200.754H50.3096V197.01C49.5736 198.258 48.5176 199.25 47.1416 199.986C45.7976 200.722 44.2136 201.09 42.3896 201.09C40.2456 201.09 38.2936 200.53 36.5336 199.41C34.8056 198.29 33.4296 196.69 32.4056 194.61C31.4136 192.498 30.9176 190.05 30.9176 187.266ZM50.3096 187.266C50.3096 185.538 49.8296 184.178 48.8696 183.186C47.9416 182.194 46.7896 181.698 45.4136 181.698C44.0056 181.698 42.8376 182.194 41.9096 183.186C40.9816 184.146 40.5176 185.506 40.5176 187.266C40.5176 188.994 40.9816 190.37 41.9096 191.394C42.8376 192.386 44.0056 192.882 45.4136 192.882C46.7896 192.882 47.9416 192.386 48.8696 191.394C49.8296 190.402 50.3096 189.026 50.3096 187.266ZM82.7906 173.586C85.8626 173.586 88.2946 174.626 90.0866 176.706C91.9106 178.754 92.8226 181.538 92.8226 185.058V200.754H83.4146V186.306C83.4146 184.77 83.0146 183.57 82.2146 182.706C81.4146 181.81 80.3426 181.362 78.9986 181.362C77.5906 181.362 76.4866 181.81 75.6866 182.706C74.8866 183.57 74.4866 184.77 74.4866 186.306V200.754H65.0786V165.234H74.4866V177.666C75.3186 176.45 76.4386 175.474 77.8466 174.738C79.2866 173.97 80.9346 173.586 82.7906 173.586ZM96.4489 187.266C96.4489 184.482 96.9449 182.05 97.9369 179.97C98.9609 177.89 100.337 176.29 102.065 175.17C103.825 174.05 105.777 173.49 107.921 173.49C109.777 173.49 111.377 173.858 112.721 174.594C114.065 175.33 115.105 176.322 115.841 177.57V173.826H125.249V200.754H115.841V197.01C115.105 198.258 114.049 199.25 112.673 199.986C111.329 200.722 109.745 201.09 107.921 201.09C105.777 201.09 103.825 200.53 102.065 199.41C100.337 198.29 98.9609 196.69 97.9369 194.61C96.9449 192.498 96.4489 190.05 96.4489 187.266ZM115.841 187.266C115.841 185.538 115.361 184.178 114.401 183.186C113.473 182.194 112.321 181.698 110.945 181.698C109.537 181.698 108.369 182.194 107.441 183.186C106.513 184.146 106.049 185.506 106.049 187.266C106.049 188.994 106.513 190.37 107.441 191.394C108.369 192.386 109.537 192.882 110.945 192.882C112.321 192.882 113.473 192.386 114.401 191.394C115.361 190.402 115.841 189.026 115.841 187.266ZM135.314 171.33C133.65 171.33 132.306 170.882 131.282 169.986C130.29 169.058 129.794 167.906 129.794 166.53C129.794 165.122 130.29 163.954 131.282 163.026C132.306 162.098 133.65 161.634 135.314 161.634C136.946 161.634 138.258 162.098 139.25 163.026C140.274 163.954 140.786 165.122 140.786 166.53C140.786 167.906 140.274 169.058 139.25 169.986C138.258 170.882 136.946 171.33 135.314 171.33ZM140.018 203.394C140.018 210.21 136.594 213.618 129.746 213.618H126.338V205.602H128.354C129.154 205.602 129.73 205.442 130.082 205.122C130.434 204.802 130.61 204.274 130.61 203.538V173.826H140.018V203.394Z" fill="#1A64AB"/>
<path d="M176.928 200.754L169.248 187.41H165.072V200.754H159.6V167.394H171.12C173.68 167.394 175.84 167.842 177.6 168.738C179.392 169.634 180.72 170.834 181.584 172.338C182.48 173.842 182.928 175.522 182.928 177.378C182.928 179.554 182.288 181.538 181.008 183.33C179.76 185.09 177.824 186.29 175.2 186.93L183.456 200.754H176.928ZM165.072 183.042H171.12C173.168 183.042 174.704 182.53 175.728 181.506C176.784 180.482 177.312 179.106 177.312 177.378C177.312 175.65 176.8 174.306 175.776 173.346C174.752 172.354 173.2 171.858 171.12 171.858H165.072V183.042ZM214.168 186.882C214.168 187.874 214.104 188.77 213.976 189.57H193.768C193.928 191.682 194.712 193.378 196.12 194.658C197.528 195.938 199.256 196.578 201.304 196.578C204.248 196.578 206.328 195.346 207.544 192.882H213.448C212.648 195.314 211.192 197.314 209.08 198.882C207 200.418 204.408 201.186 201.304 201.186C198.776 201.186 196.504 200.626 194.488 199.506C192.504 198.354 190.936 196.754 189.784 194.706C188.664 192.626 188.104 190.226 188.104 187.506C188.104 184.786 188.648 182.402 189.736 180.354C190.856 178.274 192.408 176.674 194.392 175.554C196.408 174.434 198.712 173.874 201.304 173.874C203.8 173.874 206.024 174.418 207.976 175.506C209.928 176.594 211.448 178.13 212.536 180.114C213.624 182.066 214.168 184.322 214.168 186.882ZM208.456 185.154C208.424 183.138 207.704 181.522 206.296 180.306C204.888 179.09 203.144 178.482 201.064 178.482C199.176 178.482 197.56 179.09 196.216 180.306C194.872 181.49 194.072 183.106 193.816 185.154H208.456ZM229.153 201.186C227.073 201.186 225.201 200.818 223.537 200.082C221.905 199.314 220.609 198.29 219.649 197.01C218.689 195.698 218.177 194.242 218.113 192.642H223.777C223.873 193.762 224.401 194.706 225.361 195.474C226.353 196.21 227.585 196.578 229.057 196.578C230.593 196.578 231.777 196.29 232.609 195.714C233.473 195.106 233.905 194.338 233.905 193.41C233.905 192.418 233.425 191.682 232.465 191.202C231.537 190.722 230.049 190.194 228.001 189.618C226.017 189.074 224.401 188.546 223.153 188.034C221.905 187.522 220.817 186.738 219.889 185.682C218.993 184.626 218.545 183.234 218.545 181.506C218.545 180.098 218.961 178.818 219.793 177.666C220.625 176.482 221.809 175.554 223.345 174.882C224.913 174.21 226.705 173.874 228.721 173.874C231.729 173.874 234.145 174.642 235.969 176.178C237.825 177.682 238.817 179.746 238.945 182.37H233.473C233.377 181.186 232.897 180.242 232.033 179.538C231.169 178.834 230.001 178.482 228.529 178.482C227.089 178.482 225.985 178.754 225.217 179.298C224.449 179.842 224.065 180.562 224.065 181.458C224.065 182.162 224.321 182.754 224.833 183.234C225.345 183.714 225.969 184.098 226.705 184.386C227.441 184.642 228.529 184.978 229.969 185.394C231.889 185.906 233.457 186.434 234.673 186.978C235.921 187.49 236.993 188.258 237.889 189.282C238.785 190.306 239.249 191.666 239.281 193.362C239.281 194.866 238.865 196.21 238.033 197.394C237.201 198.578 236.017 199.506 234.481 200.178C232.977 200.85 231.201 201.186 229.153 201.186ZM269.434 186.882C269.434 187.874 269.37 188.77 269.242 189.57H249.034C249.194 191.682 249.978 193.378 251.386 194.658C252.794 195.938 254.522 196.578 256.57 196.578C259.514 196.578 261.594 195.346 262.81 192.882H268.714C267.914 195.314 266.458 197.314 264.346 198.882C262.266 200.418 259.674 201.186 256.57 201.186C254.042 201.186 251.77 200.626 249.754 199.506C247.77 198.354 246.202 196.754 245.05 194.706C243.93 192.626 243.37 190.226 243.37 187.506C243.37 184.786 243.914 182.402 245.002 180.354C246.122 178.274 247.674 176.674 249.658 175.554C251.674 174.434 253.978 173.874 256.57 173.874C259.066 173.874 261.29 174.418 263.242 175.506C265.194 176.594 266.714 178.13 267.802 180.114C268.89 182.066 269.434 184.322 269.434 186.882ZM263.722 185.154C263.69 183.138 262.97 181.522 261.562 180.306C260.154 179.09 258.41 178.482 256.33 178.482C254.442 178.482 252.826 179.09 251.482 180.306C250.138 181.49 249.338 183.106 249.082 185.154H263.722ZM272.995 187.41C272.995 184.754 273.539 182.402 274.627 180.354C275.747 178.306 277.251 176.722 279.139 175.602C281.059 174.45 283.171 173.874 285.475 173.874C287.555 173.874 289.363 174.29 290.899 175.122C292.467 175.922 293.715 176.93 294.643 178.146V174.306H300.163V200.754H294.643V196.818C293.715 198.066 292.451 199.106 290.851 199.938C289.251 200.77 287.427 201.186 285.379 201.186C283.107 201.186 281.027 200.61 279.139 199.458C277.251 198.274 275.747 196.642 274.627 194.562C273.539 192.45 272.995 190.066 272.995 187.41ZM294.643 187.506C294.643 185.682 294.259 184.098 293.491 182.754C292.755 181.41 291.779 180.386 290.563 179.682C289.347 178.978 288.035 178.626 286.627 178.626C285.219 178.626 283.907 178.978 282.691 179.682C281.475 180.354 280.483 181.362 279.715 182.706C278.979 184.018 278.611 185.586 278.611 187.41C278.611 189.234 278.979 190.834 279.715 192.21C280.483 193.586 281.475 194.642 282.691 195.378C283.939 196.082 285.251 196.434 286.627 196.434C288.035 196.434 289.347 196.082 290.563 195.378C291.779 194.674 292.755 193.65 293.491 192.306C294.259 190.93 294.643 189.33 294.643 187.506ZM312.822 178.146C313.622 176.802 314.678 175.762 315.99 175.026C317.334 174.258 318.918 173.874 320.742 173.874V179.538H319.35C317.206 179.538 315.574 180.082 314.454 181.17C313.366 182.258 312.822 184.146 312.822 186.834V200.754H307.35V174.306H312.822V178.146ZM323.948 187.506C323.948 184.786 324.492 182.402 325.58 180.354C326.7 178.274 328.236 176.674 330.188 175.554C332.14 174.434 334.38 173.874 336.908 173.874C340.108 173.874 342.748 174.642 344.828 176.178C346.94 177.682 348.364 179.842 349.1 182.658H343.196C342.716 181.346 341.948 180.322 340.892 179.586C339.836 178.85 338.508 178.482 336.908 178.482C334.668 178.482 332.876 179.282 331.532 180.882C330.22 182.45 329.564 184.658 329.564 187.506C329.564 190.354 330.22 192.578 331.532 194.178C332.876 195.778 334.668 196.578 336.908 196.578C340.076 196.578 342.172 195.186 343.196 192.402H349.1C348.332 195.09 346.892 197.234 344.78 198.834C342.668 200.402 340.044 201.186 336.908 201.186C334.38 201.186 332.14 200.626 330.188 199.506C328.236 198.354 326.7 196.754 325.58 194.706C324.492 192.626 323.948 190.226 323.948 187.506ZM368.233 173.874C370.249 173.874 372.041 174.306 373.609 175.17C375.209 176.034 376.457 177.314 377.353 179.01C378.281 180.706 378.745 182.754 378.745 185.154V200.754H373.321V185.97C373.321 183.602 372.729 181.794 371.545 180.546C370.361 179.266 368.745 178.626 366.697 178.626C364.649 178.626 363.017 179.266 361.801 180.546C360.617 181.794 360.025 183.602 360.025 185.97V200.754H354.553V165.234H360.025V177.378C360.953 176.258 362.121 175.394 363.529 174.786C364.969 174.178 366.537 173.874 368.233 173.874Z" fill="#1A64AB"/>
<path d="M123.348 257.034C121.481 257.034 119.801 256.714 118.308 256.074C116.814 255.407 115.641 254.474 114.788 253.274C113.934 252.074 113.508 250.674 113.508 249.074H118.388C118.494 250.274 118.961 251.26 119.788 252.034C120.641 252.807 121.828 253.194 123.348 253.194C124.921 253.194 126.148 252.82 127.028 252.074C127.908 251.3 128.348 250.314 128.348 249.114C128.348 248.18 128.068 247.42 127.508 246.834C126.974 246.247 126.294 245.794 125.468 245.474C124.668 245.154 123.548 244.807 122.108 244.434C120.294 243.954 118.814 243.474 117.668 242.994C116.548 242.487 115.588 241.714 114.788 240.674C113.988 239.634 113.588 238.247 113.588 236.514C113.588 234.914 113.988 233.514 114.788 232.314C115.588 231.114 116.708 230.194 118.148 229.554C119.588 228.914 121.254 228.594 123.148 228.594C125.841 228.594 128.041 229.274 129.748 230.634C131.481 231.967 132.441 233.807 132.628 236.154H127.588C127.508 235.14 127.028 234.274 126.148 233.554C125.268 232.834 124.108 232.474 122.668 232.474C121.361 232.474 120.294 232.807 119.468 233.474C118.641 234.14 118.228 235.1 118.228 236.354C118.228 237.207 118.481 237.914 118.988 238.474C119.521 239.007 120.188 239.434 120.988 239.754C121.788 240.074 122.881 240.42 124.268 240.794C126.108 241.3 127.601 241.807 128.748 242.314C129.921 242.82 130.908 243.607 131.708 244.674C132.534 245.714 132.948 247.114 132.948 248.874C132.948 250.287 132.561 251.62 131.788 252.874C131.041 254.127 129.934 255.14 128.468 255.914C127.028 256.66 125.321 257.034 123.348 257.034ZM142.888 232.634V240.794H152.488V244.514H142.888V253.034H153.688V256.754H138.328V228.914H153.688V232.634H142.888ZM173.745 256.754L167.345 245.634H163.865V256.754H159.305V228.954H168.905C171.038 228.954 172.838 229.327 174.305 230.074C175.798 230.82 176.905 231.82 177.625 233.074C178.371 234.327 178.745 235.727 178.745 237.274C178.745 239.087 178.211 240.74 177.145 242.234C176.105 243.7 174.491 244.7 172.305 245.234L179.185 256.754H173.745ZM163.865 241.994H168.905C170.611 241.994 171.891 241.567 172.745 240.714C173.625 239.86 174.065 238.714 174.065 237.274C174.065 235.834 173.638 234.714 172.785 233.914C171.931 233.087 170.638 232.674 168.905 232.674H163.865V241.994ZM208.538 228.954L198.098 256.754H192.818L182.338 228.954H187.218L195.458 252.074L203.738 228.954H208.538ZM216.912 228.954V256.754H212.352V228.954H216.912ZM221.378 242.794C221.378 240.074 222.005 237.634 223.258 235.474C224.538 233.314 226.258 231.634 228.418 230.434C230.605 229.207 232.992 228.594 235.578 228.594C238.538 228.594 241.165 229.327 243.458 230.794C245.778 232.234 247.458 234.287 248.498 236.954H243.018C242.298 235.487 241.298 234.394 240.018 233.674C238.738 232.954 237.258 232.594 235.578 232.594C233.738 232.594 232.098 233.007 230.658 233.834C229.218 234.66 228.085 235.847 227.258 237.394C226.458 238.94 226.058 240.74 226.058 242.794C226.058 244.847 226.458 246.647 227.258 248.194C228.085 249.74 229.218 250.94 230.658 251.794C232.098 252.62 233.738 253.034 235.578 253.034C237.258 253.034 238.738 252.674 240.018 251.954C241.298 251.234 242.298 250.14 243.018 248.674H248.498C247.458 251.34 245.778 253.394 243.458 254.834C241.165 256.274 238.538 256.994 235.578 256.994C232.965 256.994 230.578 256.394 228.418 255.194C226.258 253.967 224.538 252.274 223.258 250.114C222.005 247.954 221.378 245.514 221.378 242.794ZM258.396 232.634V240.794H267.996V244.514H258.396V253.034H269.196V256.754H253.836V228.914H269.196V232.634H258.396Z" fill="black"/>
</svg>
